HIERARCHY
ROOT ui
{
	 OFFSET 0 0 0
	 CHANNELS 3 XPosition YPosition Z Position
	 EndSite
	 {
	 OFFSET 0 -1 0
	 }
}
ROOT li
{
	 OFFSET 0 0 0
	 CHANNELS 3 XPosition YPosition Z Position
	 EndSite
	 {
	 OFFSET 0 -1 0
	 }
}
ROOT ul
{
	 OFFSET 0 0 0
	 CHANNELS 3 XPosition YPosition Z Position
	 EndSite
	 {
	 OFFSET 0 -1 0
	 }
}
ROOT ll
{
	 OFFSET 0 0 0
	 CHANNELS 3 XPosition YPosition Z Position
	 EndSite
	 {
	 OFFSET 0 -1 0
	 }
}
ROOT tt
{
	 OFFSET 0 0 0
	 CHANNELS 3 XPosition YPosition Z Position
	 EndSite
	 {
	 OFFSET 0 -1 0
	 }
}
ROOT tb
{
	 OFFSET 0 0 0
	 CHANNELS 3 XPosition YPosition Z Position
	 EndSite
	 {
	 OFFSET 0 -1 0
	 }
}
ROOT td
{
	 OFFSET 0 0 0
	 CHANNELS 3 XPosition YPosition Z Position
	 EndSite
	 {
	 OFFSET 0 -1 0
	 }
}
ROOT v
{
	 OFFSET 0 0 0
	 CHANNELS 3 XPosition YPosition Z Position
	 EndSite
	 {
	 OFFSET 0 -1 0
	 }
}
ROOT bn
{
	 OFFSET 0 0 0
	 CHANNELS 3 XPosition YPosition Z Position
	 EndSite
	 {
	 OFFSET 0 -1 0
	 }
}
MOTION
Frames: 24
Frame Time: 0.002
0.0023825139999389647	-0.0013146859407424927	0		0.49143978881835937	-2.338631103515625	0		-0.9729769897460937	0.04032423400878906	0		-0.7415982055664062	-2.5268525390625	0		1.5471588134765626	-0.5745216064453125	0		3.099599853515625	0.12737551879882814	0		4.57339501953125	0.20172837829589843	0		5.6415615234375	0.050199325561523435	0		-0.025036842346191406	5.94044091796875	0		
0.05977669143676758	0.01006900119781494	0		0.49846194458007814	-2.3432451171875	0		-1.032860595703125	0.03908432388305664	0		-0.8162805786132813	-2.515796630859375	0		1.5474339599609375	-0.5680147705078125	0		3.116782958984375	0.12851451110839843	0		4.575521484375	0.20014508056640626	0		5.65564306640625	0.04635655212402344	0		-0.014612685203552246	5.9487724609375	0		
0.0019883459806442263	0.007773478031158448	0		0.5056009216308593	-2.347858154296875	0		-1.0345186767578125	0.04267665100097656	0		-0.7440770263671875	-2.517698974609375	0		1.5478258056640626	-0.5615064697265625	0		3.08727294921875	0.1396006317138672	0		4.5649287109375	0.20682461547851563	0		5.633513671875	0.07625530242919921	0		-0.022211252212524416	5.95046923828125	0		
0.0693192138671875	9.655719995498658E-4	0		0.4782552185058594	-2.335760986328125	0		-0.9819622192382812	0.047186290740966794	0		-0.7896842041015625	-2.518215576171875	0		1.5361229248046875	-0.5687455444335937	0		3.066462646484375	0.12651889038085937	0		4.56241845703125	0.2083522186279297	0		5.6344150390625	0.04869043350219727	0		-0.04188549041748047	5.93941796875	0		
0.04317644119262695	0.009063090324401855	0		0.49680181884765623	-2.341576416015625	0		-0.9913499755859375	0.04296048355102539	0		-0.7730191040039063	-2.517970458984375	0		1.5277247314453124	-0.5730335083007813	0		3.0652763671875	0.13206207275390625	0		4.55095263671875	0.20007525634765624	0		5.6084951171875	0.06769301605224609	0		-0.061314453125	5.9283798828125	0		
0.05285536575317383	-0.0065456748008728026	0		0.4725888671875	-2.34950732421875	0		-1.0703289794921875	0.045164905548095706	0		-0.7672411499023437	-2.52648583984375	0		1.5396156005859376	-0.5777103881835938	0		3.07699755859375	0.11836067962646485	0		4.54594140625	0.1996893310546875	0		5.6198916015625	0.03795131301879883	0		-0.0377889518737793	5.9495029296875	0		
0.043272281646728514	-0.0017356430292129518	0		0.4699216613769531	-2.346845947265625	0		-1.059158203125	0.03757284545898437	0		-0.806863525390625	-2.52105419921875	0		1.521084716796875	-0.5697457275390625	0		3.06672021484375	0.1381333465576172	0		4.54438037109375	0.20525633239746094	0		5.60941064453125	0.04768019104003906	0		-0.04236682891845703	5.94921435546875	0		
0.039346141815185545	0.017991926193237303	0		0.4318154296875	-2.333436767578125	0		-1.063488525390625	0.03732582473754883	0		-0.8071631469726562	-2.517387939453125	0		1.519802734375	-0.5671039428710938	0		3.067985595703125	0.11768919372558594	0		4.54005322265625	0.2049010009765625	0		5.60508056640625	0.04730426406860352	0		-0.19322113037109376	5.91891064453125	0		
0.04295523452758789	-0.0034103889465332033	0		0.4635725402832031	-2.345416748046875	0		-1.07924658203125	0.047345451354980465	0		-0.8132196655273437	-2.51957373046875	0		1.5127667236328124	-0.5703178100585937	0		3.07926416015625	0.12907522583007813	0		4.53297265625	0.19862493896484376	0		5.6005029296875	0.06596038055419921	0		-0.06464322662353515	5.9379912109375	0		
-0.041661960601806644	-0.003986232042312622	0		0.44905181884765627	-2.339423828125	0		-1.012934326171875	0.04173080825805664	0		-0.7948524780273437	-2.519221435546875	0		1.5060804443359375	-0.5745081787109375	0		3.0507197265625	0.13129556274414061	0		4.5293837890625	0.19830648803710937	0		5.6075234375	0.04639919662475586	0		-0.06810597229003906	5.9377734375	0		
0.018365438461303712	0.007538615226745605	0		0.44577554321289065	-2.339627685546875	0		-1.090121337890625	0.04406289291381836	0		-0.834064453125	-2.51566650390625	0		1.502843994140625	-0.5747357788085937	0		3.0474990234375	0.13103317260742187	0		4.52616455078125	0.19801078796386717	0		5.594302734375	0.046282337188720706	0		-0.0702163314819336	5.9365615234375	0		
-0.021766727447509765	-0.005874763011932373	0		0.43458477783203125	-2.353640380859375	0		-1.077121337890625	0.03659512329101562	0		-0.7891690063476563	-2.525790283203125	0		1.5030565185546876	-0.5709995727539062	0		3.058460693359375	0.12151377868652344	0		4.5244150390625	0.20271974182128907	0		5.60554736328125	0.05070299530029297	0		-0.056779239654541014	5.9440673828125	0		
0.037936508178710936	0.002718815088272095	0		0.4553062744140625	-2.341263427734375	0		-1.07552734375	0.0403935432434082	0		-0.8574531860351563	-2.512574951171875	0		1.506697998046875	-0.5642984619140625	0		3.04042724609375	0.14362594604492188	0		4.52809375	0.21035514831542967	0		5.59896044921875	0.04552123260498047	0		-0.07529725646972656	5.93625341796875	0		
0.018023170471191407	0.012965618133544922	0		0.4402013244628906	-2.33812548828125	0		-1.007743408203125	0.03487279510498047	0		-0.7918433837890625	-2.52405810546875	0		1.5014847412109376	-0.5683844604492188	0		3.028903564453125	0.12363417816162109	0		4.5187138671875	0.19729075622558595	0		5.58684228515625	0.04549338150024414	0		-0.07729677581787109	5.9361376953125	0		
0.02997493553161621	-0.0014098050594329834	0		0.4451920166015625	-2.348366943359375	0		-1.0875477294921876	0.03339079284667969	0		-0.833662841796875	-2.524319580078125	0		1.4966534423828124	-0.5714432373046875	0		3.038286376953125	0.13025907897949218	0		4.51695751953125	0.19711354064941405	0		5.5803291015625	0.057395599365234376	0		-0.07894541931152343	5.936046875	0		
0.022422618865966797	-0.008356049537658691	0		0.43490740966796876	-2.340261962890625	0		-1.01499365234375	0.030828876495361326	0		-0.8090188598632813	-2.5199072265625	0		1.4921522216796874	-0.5754757690429687	0		3.050691162109375	0.1208548812866211	0		4.5086943359375	0.2041100311279297	0		5.58367333984375	0.04513338088989258	0		-0.0660355453491211	5.9466904296875	0		
0.016446659088134766	-0.003304260015487671	0		0.44467031860351564	-2.34654052734375	0		-1.090036376953125	0.03330570602416992	0		-0.8701211547851563	-2.518718994140625	0		1.497206787109375	-0.5686699829101562	0		3.034066650390625	0.14308482360839844	0		4.517595703125	0.20279296875	0		5.5925927734375	0.04480084228515625	0		-0.06703013610839843	5.946642578125	0		
0.030795223236083986	0.002358206033706665	0		0.44591293334960935	-2.344616455078125	0		-1.0127618408203125	0.034693862915039064	0		-0.7970181884765625	-2.524250244140625	0		1.4964293212890625	-0.5687166748046875	0		3.02801220703125	0.1291256103515625	0		4.5099716796875	0.20985321044921876	0		5.57121533203125	0.06413239288330078	0		-0.06773278045654296	5.94661376953125	0		
0.026222240447998046	-0.0015699620246887207	0		0.43452566528320313	-2.3384072265625	0		-1.0912987060546875	0.03328757858276367	0		-0.845337890625	-2.514274169921875	0		1.495932373046875	-0.5687401123046875	0		3.070635009765625	0.13420849609375	0		4.51321484375	0.19672474670410156	0		5.59133056640625	0.04464842224121094	0		-0.08239557647705079	5.93589208984375	0		
0.025973426818847657	-0.0015619029998779296	0		0.4322229919433594	-2.340360107421875	0		-1.0216641845703125	0.02687136459350586	0		-0.8117105102539063	-2.51995556640625	0		1.49261962890625	-0.571678466796875	0		3.0172958984375	0.13028419494628907	0		4.5019697265625	0.19693212890625	0		5.58108447265625	0.04482918548583984	0		-0.08358976745605469	5.93692138671875	0		
-0.05815781021118164	-0.004815713882446289	0		0.43216986083984377	-2.34033447265625	0		-1.0997352294921876	0.026497142791748047	0		-0.8497357177734375	-2.518149169921875	0		1.492571533203125	-0.57165576171875	0		3.03424609375	0.1299548797607422	0		4.51292138671875	0.1967213592529297	0		5.5810380859375	0.04484039306640625	0		-0.08166090393066407	5.93490771484375	0		
0.02297964096069336	-0.004426839828491211	0		0.44315850830078124	-2.346511962890625	0		-1.085583740234375	0.028256473541259767	0		-0.8377472534179687	-2.524347412109375	0		1.4957457275390624	-0.56867138671875	0		3.05229443359375	0.12663372802734374	0		4.50313916015625	0.20197140502929686	0		5.5952509765625	0.049599578857421875	0		-0.06538755035400391	5.942625	0		
-0.04660810852050781	0.005070082187652588	0		0.4314222412109375	-2.34519873046875	0		-1.0831048583984375	0.0402767448425293	0		-0.831384521484375	-2.518406982421875	0		1.4990626220703125	-0.5646624145507813	0		3.04983544921875	0.14176762390136718	0		4.51639013671875	0.20278518676757812	0		5.59138330078125	0.04476547622680664	0		-0.06808834838867188	5.94675244140625	0		
0.03067375946044922	0.002584764003753662	0		0.46084988403320315	-2.340701171875	0		-1.012883056640625	0.034929424285888674	0		-0.8090362548828125	-2.5177724609375	0		1.496302978515625	-0.5685027465820313	0		3.01791455078125	0.13053056335449217	0		4.51670751953125	0.20289944458007814	0		5.58170361328125	0.045090187072753904	0		-0.08202494049072266	5.9361298828125	0		
